<?xml version="1.0" encoding="utf-8"?>
<!-- Generator: Adobe Illustrator 26.1.0, SVG Export Plug-In . SVG Version: 6.00 Build 0)  -->
<svg version="1.1" id="Layer_1" xmlns="http://www.w3.org/2000/svg" xmlns:xlink="http://www.w3.org/1999/xlink" x="0px" y="0px"
	 viewBox="0 0 640 512" style="enable-background:new 0 0 640 512;" xml:space="preserve">
<style type="text/css">
	.st0{opacity:0.9;fill:#231F20;}
	.st1{opacity:0.4;fill:#231F20;enable-background:new    ;}
</style>
<path class="st0" d="M640,368c0,79.5-64.5,144-144,144s-144-64.5-144-144s64.5-144,144-144S640,288.5,640,368z M496,272
	c-13.3,0-24,10.7-24,24s10.7,24,24,24s24-10.7,24-24S509.3,272,496,272z M480,352c-8.8,0-16,7.2-16,16s7.2,16,16,16v48
	c-8.8,0-16,7.2-16,16s7.2,16,16,16h32c8.8,0,16-7.2,16-16s-7.2-16-16-16v-64c0-8.8-7.2-16-16-16H480z"/>
<path class="st1" d="M448,198.6V64c0-35.3-28.7-64-64-64H128C92.7,0,64,28.7,64,64v384c0,35.3,28.7,64,64,64h256
	c3.3,0,6.6-0.3,9.7-0.7c-22.8-16.4-41.6-38.1-54.5-63.3H280h-8H144c-8.8,0-16-7.2-16-16s7.2-16,16-16h128h8h46.6
	c-2.9-10.3-4.9-21-5.9-32H272H144c-8.8,0-16-7.2-16-16s7.2-16,16-16h128h48.7C327.3,278.5,379,218.1,448,198.6z M256,64
	c31.4,0,56.9,25.5,56.9,56.9s-25.5,56.9-56.9,56.9s-56.9-25.5-56.9-56.9S224.6,64,256,64z M293.6,320H256h-96.5
	c-9.5,0-17.2-8.5-17.2-18.9c0-52.3,38.6-94.9,86.2-94.9H256h27.6c21.8,0,41.8,9,57,23.7C318.1,255.2,301.7,286,293.6,320z"/>
</svg>
