<?xml version="1.0" encoding="utf-8"?>
<!-- Generator: Adobe Illustrator 26.1.0, SVG Export Plug-In . SVG Version: 6.00 Build 0)  -->
<svg version="1.1" id="Layer_1" xmlns="http://www.w3.org/2000/svg" xmlns:xlink="http://www.w3.org/1999/xlink" x="0px" y="0px"
	 viewBox="0 0 16 16" style="enable-background:new 0 0 16 16;" xml:space="preserve">
<style type="text/css">
	.st0{opacity:0.9;}
	.st1{fill:#231F20;}
</style>
<g class="st0">
	<path class="st1" d="M16,8c0,4.4-3.6,8-8,8s-8-3.6-8-8s3.6-8,8-8S16,3.6,16,8z M8,2.7C7.3,2.7,6.7,3.3,6.7,4S7.3,5.3,8,5.3
		S9.3,4.7,9.3,4S8.7,2.7,8,2.7z M7.1,7.1C6.6,7.1,6.2,7.5,6.2,8s0.4,0.9,0.9,0.9v2.7c-0.5,0-0.9,0.4-0.9,0.9s0.4,0.9,0.9,0.9h1.8
		c0.5,0,0.9-0.4,0.9-0.9s-0.4-0.9-0.9-0.9V8c0-0.5-0.4-0.9-0.9-0.9H7.1z"/>
</g>
</svg>
