<?xml version="1.0" encoding="utf-8"?>
<!-- Generator: Adobe Illustrator 26.1.0, SVG Export Plug-In . SVG Version: 6.00 Build 0)  -->
<svg version="1.1" id="Layer_1" xmlns="http://www.w3.org/2000/svg" xmlns:xlink="http://www.w3.org/1999/xlink" x="0px" y="0px"
	 viewBox="0 0 48 48" style="enable-background:new 0 0 48 48;" xml:space="preserve">
<style type="text/css">
	.st0{opacity:0.6;}
	.st1{opacity:0.9;}
</style>
<g class="st0">
	<path d="M26,0H2C0.9,0,0,0.9,0,2v44c0,1.1,0.9,2,2,2h34c1.1,0,2-0.9,2-2V28h-2v17c0,0.6-0.4,1-1,1H3c-0.6,0-1-0.4-1-1V3
		c0-0.6,0.4-1,1-1h21"/>
</g>
<circle class="st1" cx="15" cy="11" r="5"/>
<path class="st1" d="M28,34H8c-1.1,0-2-0.9-2-2v0c0-1.1,0.9-2,2-2h20c1.1,0,2,0.9,2,2v0C30,33.1,29.1,34,28,34z"/>
<path class="st1" d="M22,40H8c-1.1,0-2-0.9-2-2v0c0-1.1,0.9-2,2-2h14c1.1,0,2,0.9,2,2v0C24,39.1,23.1,40,22,40z"/>
<path class="st1" d="M36,0c-6.6,0-12,5.4-12,12c0,6.6,5.4,12,12,12s12-5.4,12-12C48,5.4,42.6,0,36,0z M38,20h-4v-8c0-1.1,0.9-2,2-2
	s2,0.9,2,2V20z M36,8c-1.1,0-2-0.9-2-2c0-1.1,0.9-2,2-2s2,0.9,2,2C38,7.1,37.1,8,36,8z"/>
<path class="st1" d="M18.8,17c-1.1,0.7-2.5,1.1-3.9,1.1c-1.4,0-2.7-0.4-3.8-1c-2.5,1.3-4.4,3.7-5.1,6.6c-0.3,1.2,0.7,2.3,2,2.3h13.8
	c1.3,0,2.3-1.1,2-2.4C23.3,20.7,21.3,18.2,18.8,17z"/>
</svg>
