<?xml version="1.0" encoding="utf-8"?>
<!-- Generator: Adobe Illustrator 26.1.0, SVG Export Plug-In . SVG Version: 6.00 Build 0)  -->
<svg version="1.1" id="Layer_1" xmlns="http://www.w3.org/2000/svg" xmlns:xlink="http://www.w3.org/1999/xlink" x="0px" y="0px"
	 viewBox="0 0 512 512" style="enable-background:new 0 0 512 512;" xml:space="preserve">
<style type="text/css">
	.st0{fill:#FFFFFF;}
	.st1{opacity:0.9;fill:#231F20;enable-background:new    ;}
	.st2{opacity:0.4;fill:#231F20;}
</style>
<circle class="st0" cx="256" cy="256" r="256"/>
<path class="st1" d="M267.3,132.7c-3.1-3.1-7.2-4.7-11.3-4.7s-8.2,1.6-11.3,4.7l-96,96c-6.2,6.2-6.2,16.4,0,22.6
	c6.2,6.2,16.4,6.3,22.6,0l68.7-68.7V368c0,8.8,7.2,16,16,16s16-7.2,16-16V182.6l68.7,68.7c6.2,6.2,16.4,6.2,22.6,0s6.2-16.4,0-22.6
	L267.3,132.7z"/>
<path class="st2" d="M256,0C114.6,0,0,114.6,0,256s114.6,256,256,256s256-114.6,256-256S397.4,0,256,0z M256,480
	C132.5,480,32,379.5,32,256S132.5,32,256,32s224,100.5,224,224S379.5,480,256,480z"/>
</svg>
