<?xml version="1.0" encoding="utf-8"?>
<!-- Generator: Adobe Illustrator 26.1.0, SVG Export Plug-In . SVG Version: 6.00 Build 0)  -->
<svg version="1.1" id="Layer_1" xmlns="http://www.w3.org/2000/svg" xmlns:xlink="http://www.w3.org/1999/xlink" x="0px" y="0px"
	 viewBox="0 0 512 512" style="enable-background:new 0 0 512 512;" xml:space="preserve">
<style type="text/css">
	.st0{opacity:0.4;fill:#FFFFFF;enable-background:new    ;}
	.st1{opacity:0.9;fill:#FFFFFF;enable-background:new    ;}
</style>
<path class="st0" d="M256,0C114.6,0,0,114.6,0,256s114.6,256,256,256s256-114.6,256-256S397.4,0,256,0z M256,480
	C132.5,480,32,379.5,32,256S132.5,32,256,32s224,100.5,224,224S379.5,480,256,480z"/>
<path class="st1" d="M278.6,256l74.6-74.6c6.2-6.2,6.2-16.4,0-22.6s-16.4-6.2-22.6,0L256,233.4l-74.6-74.6c-6.2-6.2-16.4-6.2-22.6,0
	s-6.2,16.4,0,22.6l74.6,74.6l-74.6,74.6c-6.2,6.2-6.2,16.4,0,22.6s16.4,6.2,22.6,0l74.6-74.6l74.6,74.6c6.2,6.2,16.4,6.2,22.6,0
	s6.2-16.4,0-22.6L278.6,256z"/>
</svg>
