<?xml version="1.0" encoding="utf-8"?>
<!-- Generator: Adobe Illustrator 26.1.0, SVG Export Plug-In . SVG Version: 6.00 Build 0)  -->
<svg version="1.1" id="Layer_1" xmlns="http://www.w3.org/2000/svg" xmlns:xlink="http://www.w3.org/1999/xlink" x="0px" y="0px"
	 viewBox="0 0 512 512" style="enable-background:new 0 0 512 512;" xml:space="preserve">
<style type="text/css">
	.st0{opacity:0.9;fill:#FFFFFF;enable-background:new    ;}
	.st1{opacity:0.4;fill:#FFFFFF;enable-background:new    ;}
</style>
<path class="st0" d="M132.7,244.7c-3.1,3.1-4.7,7.2-4.7,11.3c0,4.1,1.6,8.2,4.7,11.3l96,96c6.2,6.2,16.4,6.2,22.6,0
	c6.2-6.2,6.3-16.4,0-22.6L182.6,272H368c8.8,0,16-7.2,16-16c0-8.8-7.2-16-16-16H182.6l68.7-68.7c6.2-6.2,6.2-16.4,0-22.6
	s-16.4-6.2-22.6,0L132.7,244.7z"/>
<path class="st1" d="M256,512c141.4,0,256-114.6,256-256S397.4,0,256,0S0,114.6,0,256S114.6,512,256,512z M256,32
	c123.5,0,224,100.5,224,224S379.5,480,256,480S32,379.5,32,256S132.5,32,256,32z"/>
</svg>
