<?xml version="1.0" encoding="utf-8"?>
<!-- Generator: Adobe Illustrator 26.1.0, SVG Export Plug-In . SVG Version: 6.00 Build 0)  -->
<svg version="1.1" id="Layer_1" xmlns="http://www.w3.org/2000/svg" xmlns:xlink="http://www.w3.org/1999/xlink" x="0px" y="0px"
	 viewBox="0 0 16 16" style="enable-background:new 0 0 16 16;" xml:space="preserve">
<style type="text/css">
	.st0{opacity:0.9;enable-background:new    ;}
	.st1{fill:#231F20;}
</style>
<g class="st0">
	<path class="st1" d="M14.7,14.3c-0.2,0-0.4-0.1-0.6-0.3L8,8l-6.1,6.1c-0.3,0.3-0.9,0.3-1.2,0s-0.3-0.9,0-1.2l6.7-6.7
		c0.3-0.3,0.9-0.3,1.2,0l6.7,6.7c0.3,0.3,0.3,0.9,0,1.2C15.2,14.3,15,14.3,14.7,14.3z"/>
</g>
<g class="st0">
	<path class="st1" d="M14.7,9.8c-0.2,0-0.4-0.1-0.6-0.3L8,3.4L1.9,9.5C1.5,9.9,1,9.9,0.6,9.5s-0.3-0.9,0-1.2l6.7-6.7
		c0.3-0.3,0.9-0.3,1.2,0l6.7,6.7c0.3,0.3,0.3,0.9,0,1.2C15.2,9.7,15,9.8,14.7,9.8z"/>
</g>
</svg>
