<?xml version="1.0" encoding="utf-8"?>
<!-- Generator: Adobe Illustrator 26.1.0, SVG Export Plug-In . SVG Version: 6.00 Build 0)  -->
<svg version="1.1" id="Layer_1" xmlns="http://www.w3.org/2000/svg" xmlns:xlink="http://www.w3.org/1999/xlink" x="0px" y="0px"
	 viewBox="0 0 512 512" style="enable-background:new 0 0 512 512;" xml:space="preserve">
<style type="text/css">
	.st0{opacity:0.4;fill:#231F20;enable-background:new    ;}
	.st1{opacity:0.9;}
</style>
<path class="st0" d="M256,0C114.6,0,0,114.6,0,256s114.6,256,256,256s256-114.6,256-256S397.4,0,256,0z M256,480
	C132.5,480,32,379.5,32,256S132.5,32,256,32s224,100.5,224,224S379.5,480,256,480z"/>
<circle class="st1" cx="256" cy="160" r="24"/>
<path class="st1" d="M304,352h-32V240c0-8.8-7.2-16-16-16h-32c-8.8,0-16,7.2-16,16s7.2,16,16,16h16v96h-32c-8.8,0-16,7.2-16,16
	s7.2,16,16,16h96c8.8,0,16-7.2,16-16C320,359.2,312.8,352,304,352z"/>
</svg>
