<?xml version="1.0" encoding="utf-8"?>
<!-- Generator: Adobe Illustrator 26.1.0, SVG Export Plug-In . SVG Version: 6.00 Build 0)  -->
<svg version="1.1" id="Layer_1" xmlns="http://www.w3.org/2000/svg" xmlns:xlink="http://www.w3.org/1999/xlink" x="0px" y="0px"
	 viewBox="0 0 92.13 124.02" style="enable-background:new 0 0 92.13 124.02;" xml:space="preserve">
<style type="text/css">
	.st0{opacity:0.9;enable-background:new    ;}
	.st1{opacity:0.6;enable-background:new    ;}
</style>
<g>
	<path class="st0" d="M85.04,0H21.26c-3.91,0-7.09,3.17-7.09,7.09v35.43c0,3.91,3.17,7.09,7.09,7.09h24.8v9.28
		c0,4.42,5.34,6.63,8.47,3.51l12.79-12.79h17.72c3.91,0,7.09-3.17,7.09-7.09V7.09C92.13,3.17,88.95,0,85.04,0z M85.04,42.52H64.39
		L53.15,53.76V42.52H21.26V7.09h63.78V42.52z"/>
	<path class="st0" d="M53.15,28.35c1.96,0,3.54-1.59,3.54-3.54l0,0c0-1.96-1.59-3.54-3.54-3.54s-3.54,1.59-3.54,3.54l0,0
		C49.61,26.76,51.19,28.35,53.15,28.35z"/>
	<path class="st0" d="M67.32,28.35c1.96,0,3.54-1.59,3.54-3.54l0,0c0-1.96-1.59-3.54-3.54-3.54s-3.54,1.59-3.54,3.54l0,0
		C63.78,26.76,65.37,28.35,67.32,28.35z"/>
	<path class="st0" d="M38.98,28.35c1.96,0,3.54-1.59,3.54-3.54l0,0c0-1.96-1.59-3.54-3.54-3.54s-3.54,1.59-3.54,3.54l0,0
		C35.43,26.76,37.02,28.35,38.98,28.35z"/>
</g>
<path class="st1" d="M85.04,56.69H70.26l-7.09,7.09h21.87l-38.98,38.98L7.09,63.78h31.89v-7.09H7.09C3.17,56.69,0,59.87,0,63.78
	v53.15c0,3.91,3.17,7.09,7.09,7.09h77.95c3.91,0,7.09-3.17,7.09-7.09V63.78C92.13,59.87,88.95,56.69,85.04,56.69z M85.04,116.93
	H7.09V73.8l33.97,33.97c2.77,2.77,7.25,2.77,10.02,0L85.04,73.8V116.93z"/>
</svg>
