<?xml version="1.0" encoding="utf-8"?>
<!-- Generator: Adobe Illustrator 26.1.0, SVG Export Plug-In . SVG Version: 6.00 Build 0)  -->
<svg version="1.1" id="Layer_1" xmlns="http://www.w3.org/2000/svg" xmlns:xlink="http://www.w3.org/1999/xlink" x="0px" y="0px"
	 viewBox="0 0 576 512" style="enable-background:new 0 0 576 512;" xml:space="preserve">
<style type="text/css">
	.st0{opacity:0.6;}
	.st1{opacity:0.9;}
</style>
<path class="st0" d="M512,32H64C28.7,32,0,60.7,0,96v320c0,35.3,28.7,64,64,64h448c35.3,0,64-28.7,64-64V96
	C576,60.7,547.3,32,512,32z M544,416c0,17.6-14.4,32-32,32H64c-17.6,0-32-14.4-32-32V96c0-17.6,14.4-32,32-32h448
	c17.6,0,32,14.4,32,32V416z"/>
<path class="st1" d="M505.5,373.8l-126.6-92.8l126.6-92.8c4.1-3,6.5-7.8,6.5-12.9c0-13.1-14.9-20.7-25.5-12.9L316.4,287.2
	c-8.5,6.2-18.4,9.3-28.4,9.3s-20-3.1-28.4-9.3L89.5,162.5c-10.6-7.8-25.5-0.2-25.5,12.9c0,5.1,2.4,9.9,6.5,12.9l126.6,92.8
	L70.5,373.8c-4.1,3-6.5,7.8-6.5,12.9v0c0,13.1,14.9,20.7,25.5,12.9l134.7-98.8l16.5,12.1c14.1,10.3,30.7,15.5,47.3,15.4
	c16.6,0,33.2-5.1,47.3-15.4l16.5-12.1l134.7,98.8c10.6,7.8,25.5,0.2,25.5-12.9v0C512,381.7,509.6,376.9,505.5,373.8z"/>
</svg>
