<?xml version="1.0" encoding="utf-8"?>
<!-- Generator: Adobe Illustrator 26.1.0, SVG Export Plug-In . SVG Version: 6.00 Build 0)  -->
<svg version="1.1" id="Layer_1" xmlns="http://www.w3.org/2000/svg" xmlns:xlink="http://www.w3.org/1999/xlink" x="0px" y="0px"
	 viewBox="0 0 48 48" style="enable-background:new 0 0 48 48;" xml:space="preserve">
<style type="text/css">
	.st0{opacity:0.6;}
</style>
<path d="M36,24c6.6,0,12-5.4,12-12c0-6.6-5.4-12-12-12S24,5.4,24,12c0,0,0,0,0,0l0,0v18l7.1-7.1C32.6,23.6,34.2,24,36,24 M30,14
	c-1.1,0-2-0.9-2-2c0-1.1,0.9-2,2-2s2,0.9,2,2C32,13.1,31.1,14,30,14z M36,14c-1.1,0-2-0.9-2-2c0-1.1,0.9-2,2-2s2,0.9,2,2
	C38,13.1,37.1,14,36,14z M42,14c-1.1,0-2-0.9-2-2c0-1.1,0.9-2,2-2s2,0.9,2,2C44,13.1,43.1,14,42,14z"/>
<g>
	<path d="M22.6,4L22.6,4c-0.4,0-0.8,0.2-0.9,0.6C20.6,6.8,20,9.3,20,12c0,1.1,0.1,2.2,0.3,3.2c0.1,0.5,0.5,0.8,1,0.8h0
		c0.6,0,1.1-0.6,1-1.2C22.1,13.9,22,13,22,12c0-2.3,0.5-4.6,1.4-6.6C23.8,4.8,23.3,4,22.6,4z"/>
</g>
<g>
	<path d="M18.9,2L18.9,2c-0.4,0-0.8,0.2-0.9,0.6C16.7,5.5,16,8.7,16,12c0,1.8,0.2,3.5,0.6,5.2c0.1,0.5,0.5,0.8,1,0.8h0
		c0.6,0,1.1-0.6,1-1.2C18.2,15.3,18,13.7,18,12c0-3.1,0.6-6,1.8-8.6C20.1,2.7,19.6,2,18.9,2z"/>
</g>
<g>
	<path d="M15.2,0L15.2,0c-0.4,0-0.8,0.2-0.9,0.6C12.8,4.1,12,8,12,12c0,2.5,0.3,4.9,0.9,7.3c0.1,0.4,0.5,0.7,1,0.7h0
		c0.7,0,1.1-0.6,1-1.3C14.3,16.6,14,14.3,14,12c0-3.8,0.7-7.4,2.1-10.6C16.4,0.7,15.9,0,15.2,0z"/>
</g>
<path class="st0" d="M36,28v17c0,0.6-0.4,1-1,1H3c-0.6,0-1-0.4-1-1V26.8l15.6,15.7c0.8,0.8,2.1,0.8,2.8,0L34.8,28H32L19.7,40.3
	c-0.4,0.4-1,0.4-1.4,0L2,24h18v-2H2c-1.1,0-2,0.9-2,2v22c0,1.1,0.9,2,2,2h34c1.1,0,2-0.9,2-2V28L36,28z"/>
</svg>
