<?xml version="1.0" encoding="utf-8"?>
<!-- Generator: Adobe Illustrator 26.1.0, SVG Export Plug-In . SVG Version: 6.00 Build 0)  -->
<svg version="1.1" id="Layer_1" xmlns="http://www.w3.org/2000/svg" xmlns:xlink="http://www.w3.org/1999/xlink" x="0px" y="0px"
	 viewBox="0 0 576 512" style="enable-background:new 0 0 576 512;" xml:space="preserve">
<style type="text/css">
	.st0{opacity:0.4;}
	.st1{fill:#231F20;}
	.st2{opacity:0.9;enable-background:new    ;}
</style>
<g class="st0">
	<path class="st1" d="M19.2,214.4l217.6,163.2c5.7,4.2,12.4,6.4,19.2,6.4c6.8,0,13.5-2.1,19.2-6.4l2.1-1.6c0,0,52.5-39.4,50.7-89.9
		c-9.6-7-18.4-15-26.5-23.8c-13.6-15-24.5-32.1-32.2-51c-9.1-21.9-13.6-45-13.4-68.6c0-4.9,0.3-9.9,0.7-14.8H256H48
		c-26.5,0-48,21.5-48,48C0,191.1,7.1,205.3,19.2,214.4z"/>
	<path class="st1" d="M499.3,306.7c-21.5,8.9-44.1,13.4-67.2,13.4H432c-79,39.3-83.9,42.9-136.1,82c-0.5,0.4-1,0.7-1.5,1.1
		C283,411.7,269.5,416,256,416s-27-4.3-38.4-12.8L0,240v208c0,35.3,28.7,64,64,64h192h192c35.3,0,64-28.7,64-64V300.8
		C507.9,302.9,503.6,304.9,499.3,306.7z"/>
</g>
<g class="st2">
	<path class="st1" d="M565,89C534.6,15.5,450.4-19.4,376.9,11s-108.4,114.7-78,188.1c13,31.5,36,55.9,63.8,71.2
		c-2.6,27.9-11.1,51.1-11.2,51.4c-0.9,2.3-0.3,5,1.5,6.8s4.4,2.2,6.7,1.3c25.7-10.6,45-26.5,59.4-42.3c22.4,2,45.7-1.2,68-10.4
		C560.5,246.7,595.4,162.4,565,89z M368,160c-8.8,0-16-7.2-16-16s7.2-16,16-16s16,7.2,16,16S376.8,160,368,160z M432,160
		c-8.8,0-16-7.2-16-16s7.2-16,16-16s16,7.2,16,16S440.8,160,432,160z M496,160c-8.8,0-16-7.2-16-16s7.2-16,16-16s16,7.2,16,16
		S504.8,160,496,160z"/>
</g>
</svg>
