<?xml version="1.0" encoding="utf-8"?>
<!-- Generator: Adobe Illustrator 26.1.0, SVG Export Plug-In . SVG Version: 6.00 Build 0)  -->
<svg version="1.1" id="Layer_1" xmlns="http://www.w3.org/2000/svg" xmlns:xlink="http://www.w3.org/1999/xlink" x="0px" y="0px"
	 viewBox="0 0 128 128" style="enable-background:new 0 0 128 128;" xml:space="preserve">
<style type="text/css">
	.st0{opacity:0.9;}
	.st1{opacity:0.6;}
</style>
<g>
	<g class="st0">
		<g>
			<path d="M32.02,4.07c-1.9-1.94-5.2-1.23-6.09,1.34c-2.58,7.48-3.99,15.5-3.99,23.85c0,2.6,0.14,5.17,0.4,7.7
				c0.2,1.86,1.77,3.27,3.65,3.27h0c2.19,0,3.86-1.91,3.63-4.09c-0.24-2.26-0.37-4.56-0.37-6.88c0-7.52,1.28-14.74,3.61-21.47
				C33.32,6.49,32.98,5.05,32.02,4.07L32.02,4.07z"/>
		</g>
		<g>
			<path d="M43.79,16.12c-2.03-2.08-5.55-1.02-6.11,1.83c-0.72,3.66-1.1,7.44-1.1,11.31c0,2.66,0.18,5.27,0.53,7.84
				c0.24,1.8,1.81,3.14,3.62,3.14h0c2.2,0,3.92-1.94,3.62-4.12c-0.3-2.24-0.46-4.53-0.46-6.85c0-3.34,0.32-6.61,0.94-9.78
				c0.23-1.18-0.1-2.4-0.94-3.27L43.79,16.12z"/>
		</g>
		<g>
			<path d="M58.02,30.46l-3.01-3.08c-1.39-1.42-3.81-0.44-3.81,1.55l0,0.1c0,2.76,0.26,5.46,0.74,8.08C52.26,38.8,53.76,40,55.47,40
				h0.14c2.27,0,3.93-2.07,3.52-4.3c-0.23-1.25-0.39-2.53-0.49-3.83C58.61,31.34,58.39,30.84,58.02,30.46z"/>
		</g>
	</g>
	<g class="st1">
		<path d="M91,69.62V121H11V65.2l36.84,36.87c1.85,1.85,4.86,1.85,6.71,0l0,0l0.07-0.07l31.66-31.66c1.93-1.93,1.09-5.23-1.53-6
			l-0.08-0.02c-1.27-0.37-2.64-0.02-3.57,0.91L51.2,95.09L10.97,55h56.81l0,0c0-0.97-0.31-1.77-0.84-2.41
			c-0.92-1.11-1.76-2.27-2.54-3.47c-0.64-0.99-1.74-1.58-2.92-1.12H10.97C6.93,47.54,4,54.86,4,54.86v69.49
			c0,2.02,1.63,3.65,3.65,3.65h87.7c2.02,0,3.65-1.63,3.65-3.65V67.8c0-0.99-0.81-1.8-1.81-1.8l-2.56,0l-0.02,0
			C92.63,66,91,67.63,91,69.62z"/>
	</g>
	<path class="st0" d="M65.86,26.5c-0.87,9.52,2.82,18.19,9.14,24.11v10.28l5.96-5.96c4.89,2.68,10.63,4,16.71,3.46
		c14.05-1.25,25.34-12.65,26.48-26.71c1.46-18.08-13.53-33.06-31.62-31.59C78.52,1.24,67.15,12.49,65.86,26.5z M81.17,32.85
		c-2.58,0.49-4.79-1.73-4.31-4.3c0.27-1.43,1.44-2.6,2.87-2.87c2.58-0.49,4.79,1.73,4.31,4.3C83.78,31.4,82.6,32.57,81.17,32.85z
		 M95.8,32.85c-2.58,0.49-4.79-1.73-4.31-4.31c0.27-1.43,1.44-2.6,2.87-2.87c2.58-0.49,4.79,1.73,4.3,4.3
		C98.4,31.4,97.23,32.57,95.8,32.85z M110.43,32.85c-2.58,0.49-4.79-1.73-4.31-4.3c0.27-1.43,1.44-2.6,2.87-2.87
		c2.58-0.49,4.79,1.73,4.31,4.3C113.03,31.4,111.86,32.57,110.43,32.85z"/>
</g>
</svg>
