<?xml version="1.0" encoding="utf-8"?>
<!-- Generator: Adobe Illustrator 26.1.0, SVG Export Plug-In . SVG Version: 6.00 Build 0)  -->
<svg version="1.1" id="Layer_1" xmlns="http://www.w3.org/2000/svg" xmlns:xlink="http://www.w3.org/1999/xlink" x="0px" y="0px"
	 viewBox="0 0 16 16" style="enable-background:new 0 0 16 16;" xml:space="preserve">
<style type="text/css">
	.st0{opacity:0.9;fill:#231F20;}
</style>
<path class="st0" d="M8,0C3.6,0,0,3.6,0,8c0,1.9,0.7,3.6,1.8,5c-0.7,1.4-1.7,2.4-1.7,2.4C0,15.5,0,15.6,0,15.8
	C0.1,15.9,0.2,16,0.3,16c1.5,0,2.9-0.4,3.9-0.9C5.4,15.7,6.7,16,8,16c4.4,0,8-3.6,8-8S12.4,0,8,0z M4,9C3.4,9,3,8.6,3,8s0.4-1,1-1
	s1,0.4,1,1S4.6,9,4,9z M8,9C7.4,9,7,8.6,7,8s0.4-1,1-1s1,0.4,1,1S8.6,9,8,9z M12,9c-0.6,0-1-0.4-1-1s0.4-1,1-1s1,0.4,1,1
	S12.6,9,12,9z"/>
</svg>
