<?xml version="1.0" encoding="utf-8"?>
<!-- Generator: Adobe Illustrator 27.0.1, SVG Export Plug-In . SVG Version: 6.00 Build 0)  -->
<svg version="1.1" xmlns="http://www.w3.org/2000/svg" xmlns:xlink="http://www.w3.org/1999/xlink" x="0px" y="0px"
	 viewBox="0 0 516.1 512" style="enable-background:new 0 0 516.1 512;" xml:space="preserve">
<style type="text/css">
	.st0{opacity:0.4;fill:#231F20;}
	.st1{opacity:0.9;fill:#231F20;}
</style>
<g id="Layer_1">
</g>
<g id="Layer_2">
	<g>
		<path class="st0" d="M491.7,242.1c-7.8,7.5-18.7,11.9-30.7,11c-18.9-1.4-34.4-16.2-36.6-35c-0.1-1.2-0.2-2.5-0.3-3.7
			c-0.1-4.3-4.9-6.8-8.4-4.3c-13.7,9.5-30.4,15-48.4,14.5c-43.7-1.1-79-37.3-78.9-81.1c0-18.6,6.3-35.7,16.8-49.4
			c2.7-3.4,0.4-8.4-4-8.7c-0.1,0-0.3,0-0.4,0c-18.7-1.3-33.7-16.7-34.7-35.4c-0.6-11.4,4-21.8,11.6-29c3.3-3.2,1.2-8.8-3.3-9.2
			c-9.6-0.9-19.4-1.3-29.3-1.1C108,13.7-0.7,125.4,0,262.6C0.7,400.5,112.6,512,250.7,512c138.4,0,250.7-112.2,250.7-250.7
			c0-5.3-0.2-10.5-0.5-15.7C500.5,241,495,238.9,491.7,242.1z M87.6,233.6c0-20.4,16.5-36.9,36.9-36.9s36.9,16.5,36.9,36.9
			s-16.5,36.9-36.9,36.9S87.6,253.9,87.6,233.6z M152.1,392.8c-15.2,0-27.5-12.3-27.5-27.5c0-15.2,12.3-27.5,27.5-27.5
			c15.2,0,27.5,12.3,27.5,27.5C179.6,380.5,167.3,392.8,152.1,392.8z M205.8,180.9c-10.3,0-18.7-8.4-18.7-18.7
			c0-10.3,8.4-18.7,18.7-18.7c10.3,0,18.7,8.4,18.7,18.7C224.5,172.6,216.1,180.9,205.8,180.9z M242.1,288.5
			c-9.7,0-17.6-7.9-17.6-17.6c0-9.7,7.9-17.6,17.6-17.6c9.7,0,17.6,7.9,17.6,17.6C259.7,280.6,251.8,288.5,242.1,288.5z M319,411.7
			c-16.9,0-30.6-13.7-30.6-30.6c0-16.9,13.7-30.6,30.6-30.6c16.9,0,30.6,13.7,30.6,30.6C349.5,398.1,335.8,411.7,319,411.7z"/>
		<circle class="st0" cx="413.6" cy="25.5" r="25.5"/>
		<circle class="st1" cx="394.1" cy="118" r="16"/>
		<circle class="st0" cx="504.1" cy="151" r="12"/>
		<g>
			<circle class="st1" cx="124.5" cy="233.6" r="36.9"/>
			<circle class="st1" cx="319" cy="381.2" r="30.6"/>
			<circle class="st1" cx="242.1" cy="270.9" r="17.6"/>
			<circle class="st1" cx="205.8" cy="162.2" r="18.7"/>
			<circle class="st1" cx="152.1" cy="365.3" r="27.5"/>
		</g>
	</g>
</g>
</svg>
