<?xml version="1.0" encoding="utf-8"?>
<!-- Generator: Adobe Illustrator 26.1.0, SVG Export Plug-In . SVG Version: 6.00 Build 0)  -->
<svg version="1.1" id="Layer_1" xmlns="http://www.w3.org/2000/svg" xmlns:xlink="http://www.w3.org/1999/xlink" x="0px" y="0px"
	 viewBox="0 0 128 128" style="enable-background:new 0 0 128 128;" xml:space="preserve">
<style type="text/css">
	.st0{opacity:0.9;}
	.st1{fill:#FFFFFF;}
	.st2{opacity:0.6;}
</style>
<g>
	<path class="st0" d="M30.03,106l42,0c1.93,0,3.5-1.57,3.5-3.5v0c0-1.93-1.57-3.5-3.5-3.5l-42,0c-1.93,0-3.5,1.57-3.5,3.5v0
		C26.53,104.43,28.1,106,30.03,106z"/>
	<path class="st0" d="M26.53,87.5L26.53,87.5c0,1.93,1.57,3.5,3.5,3.5l42,0c1.93,0,3.5-1.57,3.5-3.5v0c0-1.93-1.57-3.5-3.5-3.5
		l-42,0C28.09,84,26.53,85.57,26.53,87.5z"/>
	
		<ellipse transform="matrix(0.9871 -0.1602 0.1602 0.9871 -3.4609 15.5814)" class="st0" cx="94.91" cy="29.26" rx="29.26" ry="29.26"/>
	<circle class="st1" cx="95.33" cy="14.5" r="3.5"/>
	<path class="st1" d="M95.33,48L95.33,48c-1.93,0-3.5-1.57-3.5-3.5v-15c0-1.93,1.57-3.5,3.5-3.5h0c1.93,0,3.5,1.57,3.5,3.5v15
		C98.83,46.43,97.26,48,95.33,48z"/>
	<g class="st2">
		<path d="M95.17,66l-0.73,0c-1.99,0-3.62,1.63-3.62,3.62V121h-80V7h50.83c1.04,0,2.03-0.47,2.7-1.27l0,0
			C66.23,3.45,64.61,0,61.65,0H10.91C7,0,3.83,3.17,3.83,7.08v117.26c0,2.02,1.64,3.65,3.65,3.65h87.7c2.02,0,3.65-1.64,3.65-3.65
			V67.78c0-0.98-0.8-1.78-1.78-1.78L95.17,66z"/>
	</g>
	<circle class="st0" cx="43.71" cy="40.23" r="10.97"/>
	<path class="st0" d="M56.7,56.15c-1.05-1.05-2.68-1.26-3.97-0.53c-2.66,1.52-5.74,2.4-9.02,2.4s-6.35-0.88-9.02-2.4
		c-1.29-0.74-2.92-0.53-3.97,0.53c-2.38,2.4-4.1,5.45-4.86,8.87C25.41,67.06,26.99,69,29.08,69c7.01,0,22.25,0,29.26,0
		c2.09,0,3.68-1.94,3.22-3.98C60.8,61.6,59.08,58.55,56.7,56.15z"/>
</g>
</svg>
