<?xml version="1.0" encoding="utf-8"?>
<!-- Generator: Adobe Illustrator 26.1.0, SVG Export Plug-In . SVG Version: 6.00 Build 0)  -->
<svg version="1.1" id="Layer_1" xmlns="http://www.w3.org/2000/svg" xmlns:xlink="http://www.w3.org/1999/xlink" x="0px" y="0px"
	 viewBox="0 0 92.13 124.02" style="enable-background:new 0 0 92.13 124.02;" xml:space="preserve">
<style type="text/css">
	.st0{opacity:0.6;enable-background:new    ;}
</style>
<path class="st0" d="M0,7.09v109.84c0,3.91,3.17,7.09,7.09,7.09H53.3c1.99,0,3.88-0.83,5.23-2.3l31.74-34.65
	c1.2-1.31,1.86-3.01,1.86-4.79V7.09c0-3.91-3.17-7.09-7.09-7.09H7.09C3.17,0,0,3.17,0,7.09z M56.41,113.54v-28.5h26.11L56.41,113.54
	z M85.04,77.95H56.26c-3.91,0-7.09,3.17-7.09,7.09v31.89H7.09V7.09h63.78v17.52c0,1.92,1.44,3.64,3.35,3.74
	c2.04,0.11,3.73-1.52,3.73-3.54V7.09h7.09C85.04,7.09,85.04,77.95,85.04,77.95z"/>
<g>
	<path d="M45.71,42.52c7.82,0,14.17-6.36,14.17-14.17s-6.36-14.17-14.17-14.17s-14.17,6.36-14.17,14.17S37.89,42.52,45.71,42.52z
		 M45.71,21.26c3.91,0,7.09,3.18,7.09,7.09s-3.18,7.09-7.09,7.09s-7.09-3.18-7.09-7.09S41.8,21.26,45.71,21.26z"/>
	<path d="M38.55,77.95H17.72c-1.96,0-3.54,1.59-3.54,3.54c0,1.96,1.59,3.54,3.54,3.54h20.83c1.96,0,3.54-1.59,3.54-3.54
		C42.09,79.54,40.5,77.95,38.55,77.95z"/>
	<path d="M38.55,92.13H17.72c-1.96,0-3.54,1.59-3.54,3.54c0,1.96,1.59,3.54,3.54,3.54h20.83c1.96,0,3.54-1.59,3.54-3.54
		C42.09,93.71,40.5,92.13,38.55,92.13z"/>
	<path d="M66.57,66.75c-1.92-9.76-10.55-17.14-20.86-17.14s-18.94,7.38-20.86,17.14c-0.42,2.13,1.2,4.12,3.37,4.12h0.23
		c1.67,0,3.04-1.22,3.38-2.85c1.32-6.45,7.05-11.32,13.88-11.32s12.56,4.87,13.88,11.32c0.34,1.64,1.71,2.85,3.38,2.85h0.23
		C65.37,70.87,66.99,68.88,66.57,66.75z"/>
</g>
</svg>
