<?xml version="1.0" encoding="utf-8"?>
<!-- Generator: Adobe Illustrator 26.1.0, SVG Export Plug-In . SVG Version: 6.00 Build 0)  -->
<svg version="1.1" id="Layer_1" xmlns="http://www.w3.org/2000/svg" xmlns:xlink="http://www.w3.org/1999/xlink" x="0px" y="0px"
	 viewBox="0 0 128 128" style="enable-background:new 0 0 128 128;" xml:space="preserve">
<style type="text/css">
	.st0{fill:#231F20;}
	.st1{fill:#FFFFFF;}
</style>
<g>
	<circle class="st0" cx="44" cy="36" r="12"/>
	<circle class="st0" cx="96" cy="28" r="28"/>
	<path class="st0" d="M55.6,52c-3.3,2.5-7.4,4-11.9,4s-8.6-1.5-11.9-4c-4.9,3.6-8.1,9.4-8.1,16c0,1.4,0.1,2.7,0.4,4h39.2
		c0.3-1.3,0.4-2.6,0.4-4C63.7,61.4,60.5,55.6,55.6,52z"/>
	<path class="st1" d="M96,16L96,16c-2.2,0-4-1.8-4-4v0c0-2.2,1.8-4,4-4h0c2.2,0,4,1.8,4,4v0C100,14.2,98.2,16,96,16z"/>
	<path class="st1" d="M96,48L96,48c-2.2,0-4-1.8-4-4V28c0-2.2,1.8-4,4-4h0c2.2,0,4,1.8,4,4v16C100,46.2,98.2,48,96,48z"/>
	<path class="st0" d="M24,84L24,84c0-2.2,1.8-4,4-4h48c2.2,0,4,1.8,4,4v0c0,2.2-1.8,4-4,4H28C25.8,88,24,86.2,24,84z"/>
	<path class="st0" d="M24,100L24,100c0-2.2,1.8-4,4-4h36c2.2,0,4,1.8,4,4v0c0,2.2-1.8,4-4,4H28C25.8,104,24,102.2,24,100z"/>
	<path class="st0" d="M96,64c-1.4,0-2.7-0.1-4-0.2V120H12V8h54.1c0.9-1.4,2-2.7,3.1-4c0.2-0.2,0.4-0.4,0.5-0.6
		c1.2-1.2,2.4-2.4,3.7-3.5H12C7.6,0,4,3.6,4,8v112c0,4.4,3.6,8,8,8h80c4.4,0,8-3.6,8-8V63.8C98.7,63.9,97.4,64,96,64z"/>
</g>
</svg>
