<?xml version="1.0" encoding="utf-8"?>
<!-- Generator: Adobe Illustrator 26.1.0, SVG Export Plug-In . SVG Version: 6.00 Build 0)  -->
<svg version="1.1" id="Layer_1" xmlns="http://www.w3.org/2000/svg" xmlns:xlink="http://www.w3.org/1999/xlink" x="0px" y="0px"
	 viewBox="0 0 128 128" style="enable-background:new 0 0 128 128;" xml:space="preserve">
<style type="text/css">
	.st0{opacity:0.6;fill:#231F20;}
	.st1{opacity:0.9;fill:#231F20;}
</style>
<path class="st0" d="M96,64c-1.4,0-2.7-0.1-4-0.2V120H12V8h54.1c0.9-1.4,2-2.7,3.1-4c0.2-0.2,0.4-0.4,0.5-0.6
	c1.2-1.2,2.4-2.4,3.7-3.5H12C7.6,0,4,3.6,4,8v112c0,4.4,3.6,8,8,8h80c4.4,0,8-3.6,8-8V63.8C98.7,63.9,97.4,64,96,64z"/>
<g>
	<circle class="st1" cx="48" cy="36" r="12"/>
	<path class="st1" d="M96,0C80.5,0,68,12.5,68,28s12.5,28,28,28s28-12.5,28-28S111.5,0,96,0z M100,44c0,2.2-1.8,4-4,4s-4-1.8-4-4V28
		c0-2.2,1.8-4,4-4s4,1.8,4,4V44z M96,16c-2.2,0-4-1.8-4-4s1.8-4,4-4s4,1.8,4,4S98.2,16,96,16z"/>
	<path class="st1" d="M72,80H32c-2.2,0-4,1.8-4,4s1.8,4,4,4h40c2.2,0,4-1.8,4-4S74.2,80,72,80z"/>
	<path class="st1" d="M64,96H32c-2.2,0-4,1.8-4,4s1.8,4,4,4h32c2.2,0,4-1.8,4-4S66.2,96,64,96z"/>
	<path class="st1" d="M59.5,52.4C56.2,54.6,52.3,56,48,56s-8.2-1.4-11.5-3.6C31.4,56.7,28,63.9,28,72h40
		C68,63.9,64.6,56.7,59.5,52.4z"/>
</g>
</svg>
