<?xml version="1.0" encoding="utf-8"?>
<!-- Generator: Adobe Illustrator 26.1.0, SVG Export Plug-In . SVG Version: 6.00 Build 0)  -->
<svg version="1.1" id="Layer_1" xmlns="http://www.w3.org/2000/svg" xmlns:xlink="http://www.w3.org/1999/xlink" x="0px" y="0px"
	 viewBox="0 0 32 32" style="enable-background:new 0 0 32 32;" xml:space="preserve">
<style type="text/css">
	.st0{opacity:0.6;fill:#231F20;}
	.st1{opacity:0.9;fill:#231F20;}
</style>
<g>
	<path class="st0" d="M24,16c-0.3,0-0.7,0-1-0.1V30H3V2h13.5c0.2-0.3,0.5-0.7,0.8-1c0,0,0.1-0.1,0.1-0.1C17.7,0.6,18,0.3,18.3,0H3
		C1.9,0,1,0.9,1,2v28c0,1.1,0.9,2,2,2h20c1.1,0,2-0.9,2-2V15.9C24.7,16,24.3,16,24,16z"/>
	<g>
		<circle class="st1" cx="12" cy="9" r="3"/>
		<path class="st1" d="M24,0c-3.9,0-7,3.1-7,7s3.1,7,7,7s7-3.1,7-7S27.9,0,24,0z M25,11c0,0.6-0.4,1-1,1s-1-0.4-1-1V7
			c0-0.6,0.4-1,1-1s1,0.4,1,1V11z M24,4c-0.6,0-1-0.4-1-1s0.4-1,1-1s1,0.4,1,1S24.6,4,24,4z"/>
		<path class="st1" d="M18,20H8c-0.6,0-1,0.4-1,1s0.4,1,1,1h10c0.6,0,1-0.4,1-1S18.6,20,18,20z"/>
		<path class="st1" d="M16,24H8c-0.6,0-1,0.4-1,1s0.4,1,1,1h8c0.6,0,1-0.4,1-1S16.6,24,16,24z"/>
		<path class="st1" d="M14.9,13.1C14.1,13.7,13.1,14,12,14s-2.1-0.3-2.9-0.9C7.8,14.2,7,16,7,18h10C17,16,16.2,14.2,14.9,13.1z"/>
	</g>
</g>
</svg>
