<?xml version="1.0" encoding="utf-8"?>
<!-- Generator: Adobe Illustrator 26.1.0, SVG Export Plug-In . SVG Version: 6.00 Build 0)  -->
<svg version="1.1" id="Layer_1" xmlns="http://www.w3.org/2000/svg" xmlns:xlink="http://www.w3.org/1999/xlink" x="0px" y="0px"
	 viewBox="0 0 128 128" style="enable-background:new 0 0 128 128;" xml:space="preserve">
<style type="text/css">
	.st0{fill:#231F20;}
	.st1{fill:#FFFFFF;}
</style>
<g>
	<circle class="st0" cx="40" cy="36" r="12"/>
	<circle class="st0" cx="96" cy="28" r="28"/>
	<path class="st0" d="M51.9,52c-3.3,2.5-7.4,4-11.9,4s-8.6-1.5-11.9-4c-4.9,3.6-8.1,9.4-8.1,16c0,1.4,0.1,2.7,0.4,4h39.2
		c0.3-1.3,0.4-2.6,0.4-4C60,61.4,56.8,55.6,51.9,52z"/>
	<path class="st0" d="M96,64c-1.4,0-2.7-0.1-4-0.2V120H12V8h54.1c2-3,4.5-5.7,7.3-8H12C7.6,0,4,3.6,4,8v112c0,4.4,3.6,8,8,8h80
		c4.4,0,8-3.6,8-8V63.8C98.7,63.9,97.4,64,96,64z"/>
	<path class="st1" d="M96,16L96,16c-2.2,0-4-1.8-4-4v0c0-2.2,1.8-4,4-4h0c2.2,0,4,1.8,4,4v0C100,14.2,98.2,16,96,16z"/>
	<path class="st1" d="M96,48L96,48c-2.2,0-4-1.8-4-4V24c0-2.2,1.8-4,4-4h0c2.2,0,4,1.8,4,4v20C100,46.2,98.2,48,96,48z"/>
	<path class="st0" d="M20,84L20,84c0-2.2,1.8-4,4-4h56c2.2,0,4,1.8,4,4v0c0,2.2-1.8,4-4,4H24C21.8,88,20,86.2,20,84z"/>
	<path class="st0" d="M20,100L20,100c0-2.2,1.8-4,4-4h32c2.2,0,4,1.8,4,4v0c0,2.2-1.8,4-4,4H24C21.8,104,20,102.2,20,100z"/>
</g>
</svg>
