<?xml version="1.0" encoding="utf-8"?>
<!-- Generator: Adobe Illustrator 26.1.0, SVG Export Plug-In . SVG Version: 6.00 Build 0)  -->
<svg version="1.1" id="Layer_1" xmlns="http://www.w3.org/2000/svg" xmlns:xlink="http://www.w3.org/1999/xlink" x="0px" y="0px"
	 viewBox="0 0 576 512" style="enable-background:new 0 0 576 512;" xml:space="preserve">
<style type="text/css">
	.st0{opacity:0.6;}
	.st1{opacity:0.9;}
</style>
<path class="st0" d="M512,32H64C28.7,32,0,60.7,0,96v320c0,35.3,28.7,64,64,64h448c35.3,0,64-28.7,64-64V96
	C576,60.7,547.3,32,512,32z M544,416c0,17.6-14.4,32-32,32H64c-17.6,0-32-14.4-32-32V96c0-17.6,14.4-32,32-32h448
	c17.6,0,32,14.4,32,32V416z"/>
<g class="st1">
	<path d="M480,288H352c-8.8,0-16,7.2-16,16s7.2,16,16,16h128c8.8,0,16-7.2,16-16S488.8,288,480,288z"/>
	<path d="M192,256c35.4,0,64-28.7,64-64c0-35.4-28.7-64-64-64s-64,28.7-64,64S156.7,256,192,256z M192,160c17.6,0,32,14.4,32,32
		s-14.4,32-32,32c-17.6,0-32-14.4-32-32C160,174.4,174.4,160,192,160z"/>
	<path d="M224,288h-64c-44.2,0-80,35.8-80,80c0,8.8,7.2,16,16,16c8.8,0,16-7.2,16-16c0-26.5,21.5-48,48-48h64c26.5,0,48,21.5,48,48
		c0,8.8,7.2,16,16,16s16-7.2,16-16C304,323.8,268.2,288,224,288z"/>
	<path d="M480,224H352c-8.8,0-16,7.2-16,16s7.2,16,16,16h128c8.8,0,16-7.2,16-16S488.8,224,480,224z"/>
	<path d="M352,192h128c8.8,0,16-7.2,16-16s-7.2-16-16-16H352c-8.8,0-16,7.2-16,16S343.2,192,352,192z"/>
</g>
</svg>
