<?xml version="1.0" encoding="utf-8"?>
<!-- Generator: Adobe Illustrator 27.0.1, SVG Export Plug-In . SVG Version: 6.00 Build 0)  -->
<svg version="1.1" id="Layer_1" xmlns="http://www.w3.org/2000/svg" xmlns:xlink="http://www.w3.org/1999/xlink" x="0px" y="0px"
	 viewBox="0 0 512 512" style="enable-background:new 0 0 512 512;" xml:space="preserve">
<style type="text/css">
	.st0{opacity:0.9;}
	.st1{opacity:0.4;}
</style>
<path class="st0" d="M165.9,374.3c22.4-26.9,55.3-42.2,90.2-42.2s67.8,15.4,90.2,42.2c5.7,6.8,15.7,7.6,22.5,2
	c6.8-5.8,7.6-15.8,1.9-22.5c-28.3-34.1-70.2-53.8-114.7-53.8s-86.3,19.6-114.8,53.8c-5.7,6.9-4.8,17,1.9,22.5
	C150.2,381.9,160.2,381,165.9,374.3z"/>
<path class="st0" d="M336,232c13.3,0,24-10.7,24-24s-10.7-24-24-24c-13.2,0-24,10.7-24,24S322.7,232,336,232z"/>
<path class="st1" d="M256,16C123.5,16,16,123.5,16,256s107.5,240,240,240s240-107.5,240-240S388.5,16,256,16z M256,464
	c-114.7,0-208-93.3-208-208S141.3,48,256,48s208,93.3,208,208S370.7,464,256,464z"/>
<path class="st0" d="M176,232c13.3,0,24-10.7,24-24s-10.7-24-24-24c-13.2,0-24,10.7-24,24S162.7,232,176,232z"/>
</svg>
