<?xml version="1.0" encoding="utf-8"?>
<!-- Generator: Adobe Illustrator 26.1.0, SVG Export Plug-In . SVG Version: 6.00 Build 0)  -->
<svg version="1.1" id="Layer_1" xmlns="http://www.w3.org/2000/svg" xmlns:xlink="http://www.w3.org/1999/xlink" x="0px" y="0px"
	 viewBox="0 0 384 512" style="enable-background:new 0 0 384 512;" xml:space="preserve">
<style type="text/css">
	.st0{opacity:0.4;fill:#231F20;}
	.st1{opacity:0.9;fill:#231F20;enable-background:new    ;}
</style>
<path class="st0" d="M365.3,125.3L258.8,18.8C246.7,6.7,230.5,0,213.5,0H64C28.7,0,0,28.7,0,64l0,384c0,35.4,28.7,64,64,64h256
	c35.4,0,64-28.6,64-64V170.5C384,153.5,377.3,137.3,365.3,125.3z M224,34.1c4.5,1.6,8.7,3.8,12.1,7.3l106.5,106.5
	c3.5,3.4,5.8,7.6,7.3,12.1H240c-8.8,0-16-7.2-16-16V34.1z M352,448c0,17.6-14.4,32-32,32H64c-17.6,0-32-14.4-32-32V64
	c0-17.6,14.4-32,32-32h128v112c0,26.5,21.5,48,48,48h112V448z"/>
<path class="st1" d="M208,240c0-8.8-7.2-16-16-16s-16,7.2-16,16v121.4l-52.7-52.7c-3.1-3.1-7.2-4.7-11.3-4.7s-8.2,1.6-11.3,4.7
	c-6.2,6.2-6.2,16.4,0,22.6l80,80c6.2,6.2,16.4,6.2,22.6,0l80-80c6.2-6.2,6.2-16.4,0-22.6s-16.4-6.2-22.6,0L208,361.4V240z"/>
</svg>
