<?xml version="1.0" encoding="utf-8"?>
<!-- Generator: Adobe Illustrator 26.1.0, SVG Export Plug-In . SVG Version: 6.00 Build 0)  -->
<svg version="1.1" id="Layer_1" xmlns="http://www.w3.org/2000/svg" xmlns:xlink="http://www.w3.org/1999/xlink" x="0px" y="0px"
	 viewBox="0 0 576 512" style="enable-background:new 0 0 576 512;" xml:space="preserve">
<style type="text/css">
	.st0{opacity:0.8;enable-background:new    ;}
	.st1{opacity:0.4;}
	.st2{opacity:0.4;enable-background:new    ;}
</style>
<path class="st0" d="M475.4,37.3H308.8c-13.5,0-26.6,4.4-37.5,12.5l-45.8,34.4H100.6c-34.5,0-62.5,28-62.5,62.5v265.5
	c0,34.5,28,62.5,62.5,62.5h374.8c34.5,0,62.5-28,62.5-62.5V99.8C537.9,65.3,509.9,37.3,475.4,37.3z M506.6,412.2
	c0,17.3-14,31.2-31.2,31.2H100.6c-17.2,0-31.2-14-31.2-31.2V256H167c-2.5,10-3.9,19.6-3.9,31.2c0,69,55.9,124.9,124.9,124.9
	s124.9-55.9,124.9-124.9c0-11.6-1.4-21.3-4.8-31.2h98.5V412.2z M194.3,287.2c0-52.6,41.1-93.7,93.7-93.7c51.7,0,93.7,41.1,93.7,93.7
	c0,51.7-42,93.7-93.7,93.7C235.4,380.9,194.3,339,194.3,287.2z M506.6,224.8H396.2c-21.7-37.4-62-62.5-108.2-62.5
	s-86.6,25.1-108.2,62.5H69.4v-78.1c0-17.3,14-31.2,31.2-31.2h124.9c6.7,0,13.4-2.1,18.7-6.2L290,74.8c5.5-4.1,12-6.2,18.7-6.2h166.6
	c17.3,0,31.2,14,31.2,31.2L506.6,224.8L506.6,224.8z"/>
<path class="st1" d="M100.6,53c0-8.6,7-15.6,15.6-15.6h62.5c8.6,0,15.6,7,15.6,15.6s-7,15.6-15.6,15.6h-62.5
	C107.6,68.6,100.6,61.6,100.6,53z"/>
<ellipse class="st2" cx="288" cy="287.2" rx="93.7" ry="93.7"/>
</svg>
