<?xml version="1.0" encoding="utf-8"?>
<!-- Generator: Adobe Illustrator 26.1.0, SVG Export Plug-In . SVG Version: 6.00 Build 0)  -->
<svg version="1.1" id="Layer_1" xmlns="http://www.w3.org/2000/svg" xmlns:xlink="http://www.w3.org/1999/xlink" x="0px" y="0px"
	 viewBox="0 0 640 512" style="enable-background:new 0 0 640 512;" xml:space="preserve">
<style type="text/css">
	.st0{opacity:0.4;}
	.st1{fill:#231F20;}
	.st2{opacity:0.9;fill:#231F20;}
</style>
<g class="st0">
	<path class="st1" d="M256,271.8h-55.9c-8.8,0-16,7.2-16,16v175.8c0,8.8,7.2,16,16,16H256c8.8,0,16-7.2,16-16V287.8
		C272,278.9,264.8,271.8,256,271.8z"/>
	<path class="st1" d="M320,119.9h55.9c8.8,0,16-7.2,16-16V48c0-8.8-7.2-16-16-16H320c-8.8,0-16,7.2-16,16v55.9
		C304,112.7,311.2,119.9,320,119.9z"/>
	<path class="st1" d="M136.1,391.6H80.2c-8.8,0-16,7.2-16,16v55.9c0,8.8,7.2,16,16,16h55.9c8.8,0,16-7.2,16-16v-55.9
		C152.1,398.8,145,391.6,136.1,391.6z"/>
	<path class="st1" d="M136.1,271.8H80.2c-8.8,0-16,7.2-16,16v55.9c0,8.8,7.2,16,16,16h55.9c8.8,0,16-7.2,16-16v-55.9
		C152.1,278.9,145,271.8,136.1,271.8z"/>
	<path class="st1" d="M495.8,32h-55.9c-8.8,0-16,7.2-16,16v55.9c0,8.8,7.2,16,16,16h55.9c8.8,0,16-7.2,16-16V48
		C511.8,39.2,504.6,32,495.8,32z"/>
	<path class="st1" d="M256,32H80.2c-8.8,0-16,7.2-16,16v175.8c0,8.8,7.2,16,16,16H256c8.8,0,16-7.2,16-16V48
		C272,39.2,264.8,32,256,32z"/>
	<path class="st1" d="M495.8,151.6H320c-8.8,0-16,7.2-16,16v175.8c0,8.8,7.2,16,16,16h0.2C324.7,266.2,401.7,192,496,192
		c5.3,0,10.6,0.2,15.8,0.7v-25.1C511.8,158.8,504.6,151.6,495.8,151.6z"/>
	<path class="st1" d="M320,391.6c-8.8,0-16,7.2-16,16v55.9c0,8.8,7.2,16,16,16h39.8c-20.2-24.6-33.8-54.8-38.2-87.9H320z"/>
</g>
<path class="st2" d="M640,368c0,0.5,0,1,0,1.5c-0.2,20.5-18.9,34.5-39.4,34.5h-55.1c-14.9,0-27,12.1-27,27c0,1.9,0.2,3.8,0.6,5.6
	c1.2,5.7,3.7,11.2,6.1,16.8c3.4,7.8,6.8,15.5,6.8,23.6c0,17.9-12.1,34.1-30,34.9c-2,0.1-3.9,0.1-6,0.1C416.5,512,352,447.5,352,368
	s64.5-144,144-144S640,288.5,640,368z M424,386c0-10-8-18-18-18s-18,8-18,18s8,18,18,18S424,396,424,386z M424,332c10,0,18-8,18-18
	s-8-18-18-18s-18,8-18,18S414,332,424,332z M514,278c0-10-8-18-18-18s-18,8-18,18s8,18,18,18C506,296,514,288,514,278z M568,332
	c10,0,18-8,18-18s-8-18-18-18s-18,8-18,18S558,332,568,332z"/>
</svg>
