<?xml version="1.0" encoding="utf-8"?>
<!-- Generator: Adobe Illustrator 26.1.0, SVG Export Plug-In . SVG Version: 6.00 Build 0)  -->
<svg version="1.1" id="Layer_1" xmlns="http://www.w3.org/2000/svg" xmlns:xlink="http://www.w3.org/1999/xlink" x="0px" y="0px"
	 viewBox="0 0 16 16" style="enable-background:new 0 0 16 16;" xml:space="preserve">
<style type="text/css">
	.st0{opacity:0.9;fill:#231F20;enable-background:new    ;}
</style>
<path class="st0" d="M16,8.1C16,8.1,16,8.2,16,8.1c0,1.2-1.1,2-2.2,2h-3.1c-0.8,0-1.5,0.7-1.5,1.5c0,0.1,0,0.2,0,0.3
	c0.1,0.3,0.2,0.6,0.3,0.9c0.2,0.4,0.4,0.9,0.4,1.3c0,1-0.7,1.9-1.7,1.9C8.1,16,8,16,8,16c-4.4,0-8-3.6-8-8s3.6-8,8-8S16,3.7,16,8.1z
	 M4.1,9.1c0-0.6-0.4-1-1-1s-1,0.4-1,1s0.4,1,1,1S4.1,9.7,4.1,9.1z M4.1,6.1c0.6,0,1-0.4,1-1s-0.4-1-1-1s-1,0.4-1,1S3.5,6.1,4.1,6.1z
	 M9,3.1c0-0.6-0.4-1-1-1s-1,0.4-1,1s0.4,1,1,1S9,3.7,9,3.1z M12,6.1c0.6,0,1-0.4,1-1s-0.4-1-1-1c-0.6,0-1,0.4-1,1S11.4,6.1,12,6.1z"
	/>
</svg>
