<?xml version="1.0" encoding="utf-8"?>
<!-- Generator: Adobe Illustrator 27.0.1, SVG Export Plug-In . SVG Version: 6.00 Build 0)  -->
<svg version="1.1" id="Layer_1" xmlns="http://www.w3.org/2000/svg" xmlns:xlink="http://www.w3.org/1999/xlink" x="0px" y="0px"
	 viewBox="0 0 640 512" style="enable-background:new 0 0 640 512;" xml:space="preserve">
<style type="text/css">
	.st0{fill:#0D6EFD;}
</style>
<path class="st0" d="M144,304c-52.9,0-96-43.1-96-96s43.1-96,96-96h160c52.9,0,96,43.1,96,96s-43.1,96-96,96h-32
	c0,19.2,8.6,36.3,22.1,48h9.9c79.4,0,144-64.6,144-144S383.4,64,304,64H144C64.6,64,0,128.6,0,208s64.6,144,144,144h23.5
	c-4.4-15.4-7.5-31.3-7.5-48H144z M496,160h-23.5c4.4,15.4,7.5,31.3,7.5,48h16c52.9,0,96,43.1,96,96s-43.1,96-96,96H336
	c-52.9,0-96-43.1-96-96s43.1-96,96-96h32c0-19.2-8.6-36.3-22.1-48H336c-79.4,0-144,64.6-144,144s64.6,144,144,144h160
	c79.4,0,144-64.6,144-144S575.4,160,496,160z"/>
</svg>
