<?xml version="1.0" encoding="utf-8"?>
<!-- Generator: Adobe Illustrator 27.0.1, SVG Export Plug-In . SVG Version: 6.00 Build 0)  -->
<svg version="1.1" id="Layer_1" xmlns="http://www.w3.org/2000/svg" xmlns:xlink="http://www.w3.org/1999/xlink" x="0px" y="0px"
	 viewBox="0 0 640 512" style="enable-background:new 0 0 640 512;" xml:space="preserve">
<style type="text/css">
	.st0{fill:#0D6EFD;}
</style>
<path class="st0" d="M512,192h-32c-8.8,0-16,7.2-16,16s7.2,16,16,16h32c52.9,0,96,43.1,96,96s-43.1,96-96,96H336
	c-52.9,0-96-43.1-96-96s43.1-96,96-96h16c8.8,0,16-7.2,16-16s-7.2-16-16-16h-16c-70.6,0-128,57.4-128,128s57.4,128,128,128h176
	c70.6,0,128-57.4,128-128S582.6,192,512,192z M160,288h-32c-52.9,0-96-43.1-96-96s43.1-96,96-96h176c52.9,0,96,43.1,96,96
	s-43.1,96-96,96h-16c-8.8,0-16,7.2-16,16s7.2,16,16,16h16c70.6,0,128-57.4,128-128S374.6,64,304,64H128C57.4,64,0,121.4,0,192
	s57.4,128,128,128h32c8.8,0,16-7.2,16-16S168.8,288,160,288z"/>
</svg>
