<?xml version="1.0" encoding="utf-8"?>
<!-- Generator: Adobe Illustrator 26.1.0, SVG Export Plug-In . SVG Version: 6.00 Build 0)  -->
<svg version="1.1" id="Layer_1" xmlns="http://www.w3.org/2000/svg" xmlns:xlink="http://www.w3.org/1999/xlink" x="0px" y="0px"
	 viewBox="0 0 576 512" style="enable-background:new 0 0 576 512;" xml:space="preserve">
<style type="text/css">
	.st0{opacity:0.4;}
	.st1{opacity:0.8;}
</style>
<polygon class="st0" points="512,126.2 224,222.2 224,128 223.5,128 512,32.6 "/>
<path class="st1" d="M513.5,0c-3.2,0-6.4,0.5-9.2,1.5l-290.9,96C200.8,101.8,192,114,192,128v244.8C175,360,152.7,352,127.1,352
	c-53,0-95.1,35.8-95.1,80s42.1,80,95.1,80c53,0,95.1-35.7,95.1-80l1.8-176l288-96v148.8C495,296,472.7,288,447.1,288
	c-53,0-95.1,35.7-95.1,79.1s42.1,79.1,95.1,79.1c53,0,95.1-35.8,95.1-80L544,32C544,13.7,529.8,0,513.5,0z M128,480
	c-34.7,0-64-21.1-64-48c0-26,29.2-48,64-48c34.7,0,64,22,64,48S162.8,480,128,480z M512,126.2l-288,96V128h-0.5L512,32.6V126.2z
	 M448,416c-34.7,0-64-21.1-64-48c0-25.1,29.2-48,64-48c34.7,0,64,22,64,48S482.8,416,448,416z"/>
</svg>
