<?xml version="1.0" encoding="utf-8"?>
<!-- Generator: Adobe Illustrator 26.1.0, SVG Export Plug-In . SVG Version: 6.00 Build 0)  -->
<svg version="1.1" id="Layer_1" xmlns="http://www.w3.org/2000/svg" xmlns:xlink="http://www.w3.org/1999/xlink" x="0px" y="0px"
	 viewBox="0 0 512 512" style="enable-background:new 0 0 512 512;" xml:space="preserve">
<style type="text/css">
	.st0{fill:#FFFFFF;}
</style>
<g>
	<path class="st0" d="M139.9,336c31.1,0,47.2-3.7,47.2-20.6c0-12-9.7-21.7-28.8-34.1l-49.4-32.2c-25.8-16.8-38.2-37-38.2-61.8
		c0-37.8,29.6-64.4,79-64.4h141.1l47.2,181.2c2.6,9.7,5.2,21.3,7.9,35.2c2.6-13.9,4.9-25.5,7.5-35.2L418,57.5
		C370.8,19,309.7-3,243.3,0.2C110.1,6.6,3.8,115.3-0.1,248.6c-0.9,30.6,3.6,60,12.6,87.4H139.9z"/>
	<path class="st0" d="M457.2,98l-67.6,250.9c-7.1,26.9-21.3,39.6-44.1,39.6s-37.3-12.7-44.4-39.6L253.2,170h-94.8
		c-24.3,0-36.2,3.4-36.2,17.5c0,11.6,9.7,19.1,26.1,29.5l53.8,34.7c25.8,16.4,38.5,37.3,38.5,62c0,19.1-7.8,37-22,50.1
		c-20.9,19-45.2,20.2-78,20.2H34.9C79.2,460.1,161.6,511.3,256,511.3c141.2,0,255.6-114.4,255.6-255.6
		C511.6,196.2,491.3,141.4,457.2,98z"/>
</g>
</svg>
