<?xml version="1.0" encoding="utf-8"?>
<!-- Generator: Adobe Illustrator 26.1.0, SVG Export Plug-In . SVG Version: 6.00 Build 0)  -->
<svg version="1.1" id="Layer_1" xmlns="http://www.w3.org/2000/svg" xmlns:xlink="http://www.w3.org/1999/xlink" x="0px" y="0px"
	 viewBox="0 0 512 512" style="enable-background:new 0 0 512 512;" xml:space="preserve">
<style type="text/css">
	.st0{fill:#FFFFFF;}
</style>
<circle class="st0" cx="255.9" cy="255.9" r="256"/>
<g>
	<path d="M51.9,373.2v-43.5c3.9,3.6,8.6,6.7,13.9,9.6s11.1,5.2,17.1,7.2s12.1,3.5,18.1,4.5s11.6,1.6,16.7,1.6c17.8,0,31-3,39.7-8.9
		c8.7-5.9,13.1-14.5,13.1-25.7c0-6-1.5-11.3-4.4-15.7c-2.9-4.4-7-8.5-12.2-12.2c-5.2-3.7-11.3-7.2-18.4-10.6
		c-7-3.4-14.6-6.9-22.6-10.6c-8.6-4.6-16.7-9.3-24.1-14c-7.5-4.7-13.9-10-19.4-15.7c-5.5-5.7-9.8-12.2-13-19.4
		c-3.1-7.2-4.7-15.7-4.7-25.4c0-12,2.7-22.3,8.1-31.2c5.4-8.8,12.5-16.1,21.3-21.8c8.8-5.7,18.9-10,30.1-12.8s22.7-4.2,34.4-4.2
		c26.6,0,46,3,58.2,9.1v41.7c-14.4-10.4-33-15.6-55.8-15.6c-6.3,0-12.5,0.6-18.7,1.8c-6.2,1.2-11.8,3.1-16.7,5.9
		c-4.9,2.7-8.9,6.2-12,10.5s-4.6,9.4-4.6,15.4c0,5.7,1.2,10.6,3.6,14.7c2.4,4.1,5.8,7.9,10.4,11.4c4.6,3.4,10.1,6.8,16.7,10
		c6.6,3.3,14.2,6.8,22.8,10.6c8.9,4.6,17.3,9.5,25.1,14.6c7.9,5.1,14.8,10.7,20.8,16.9s10.7,13,14.2,20.5c3.5,7.5,5.2,16.1,5.2,25.7
		c0,12.9-2.6,23.8-7.8,32.7s-12.2,16.1-21,21.7c-8.8,5.6-19,9.6-30.5,12.1s-23.6,3.7-36.4,3.7c-4.3,0-9.5-0.3-15.7-1
		s-12.6-1.6-19.1-2.8c-6.5-1.2-12.7-2.8-18.5-4.5C60.1,377.5,55.5,375.4,51.9,373.2z"/>
	<path d="M459.8,129.9l-90.9,253H322l-89.3-253h46l62.4,191.7c2,6.1,3.5,13.2,4.6,21.3h0.7c0.8-6.7,2.5-13.9,5.1-21.7l63.8-191.3
		H459.8z"/>
</g>
</svg>
