<?xml version="1.0" encoding="utf-8"?>
<!-- Generator: Adobe Illustrator 27.0.1, SVG Export Plug-In . SVG Version: 6.00 Build 0)  -->
<svg version="1.1" id="Layer_1" xmlns="http://www.w3.org/2000/svg" xmlns:xlink="http://www.w3.org/1999/xlink" x="0px" y="0px"
	 viewBox="0 0 512 512" style="enable-background:new 0 0 512 512;" xml:space="preserve">
<style type="text/css">
	.st0{fill:#939598;}
</style>
<g>
	<path class="st0" d="M201,320c-3.8-8.9-15.5-18.9-41-36.2c-35.2-23.8-94.1-63.7-63.6-137.3c5.2-12.5,17.3-20.6,30.8-20.6h168.1
		c12.3,0,23.6,6.8,29.4,17.6c0.5,1,1,2.1,1.5,3.1c1.5,3.5,28.2,68,50.4,121.7l74.1-178.8C399.5,30,321.5-6,235.5,0.7
		C109.8,10.6,9.5,111.6,0.3,237.4c-2.1,28.7,0.6,56.4,7.3,82.6H201z"/>
	<path class="st0" d="M408.2,365.4c-5.2,12.5-17.3,20.6-30.8,20.6h-1.8c-13.5,0-25.6-8.1-30.8-20.6L273,192H156.2
		c4,8.9,15.7,18.8,41.1,36c35.3,23.9,94.4,63.9,63.1,137.7c-5.2,12.3-17.3,20.3-30.7,20.3H35.3c54.8,92.4,165.8,147.6,285.6,118.1
		c79.1-19.5,161.5-100.8,182.4-179.5c15.6-59,10.3-115.8-9.7-165.1L408.2,365.4z"/>
</g>
</svg>
